<?xml version="1.0" encoding="utf-8"?>
<!-- Generator: Adobe Illustrator 16.0.0, SVG Export Plug-In . SVG Version: 6.00 Build 0)  -->
<!DOCTYPE svg PUBLIC "-//W3C//DTD SVG 1.1//EN" "http://www.w3.org/Graphics/SVG/1.1/DTD/svg11.dtd">
<svg version="1.1" id="Layer_1" xmlns="http://www.w3.org/2000/svg" xmlns:xlink="http://www.w3.org/1999/xlink" x="0px" y="0px"
	 width="500px" height="500px" viewBox="0 0 500 500" enable-background="new 0 0 500 500" xml:space="preserve">
<rect fill="none" width="500" height="500"/>
<g>
	<path fill="#0597D3" d="M94.717,247.144c0-39.124,15.935-74.525,41.659-100.074v-40.222H36.074L0,177.062h60.183v204.282h76.193
		v-34.127C110.651,321.668,94.717,286.268,94.717,247.144z"/>
	<path fill="#0597D3" d="M296.582,313.73c-17.758-16.646-28.861-40.32-28.861-66.586c0-50.399,40.857-91.252,91.256-91.252
		c50.395,0,91.256,40.853,91.256,91.252c0,24.159-9.391,46.118-24.715,62.444c15.979,3.219,33.627,8.59,49.65,17.504
		C490.83,304.371,500,276.832,500,247.144c0-77.886-63.139-141.025-141.023-141.025c-77.889,0-141.029,63.139-141.029,141.025
		c0,31.479,10.315,60.547,27.748,84.014C258.947,324.432,275.615,318.359,296.582,313.73z"/>
	<path fill="#0597D3" d="M194.311,393.881c0,0-1.025-83.59,180.295-88.988c0,0,74.072-3.09,118.828,34.721
		c0,0-65.17-50.285-201.6-12.781C291.834,326.832,222.867,345.574,194.311,393.881z"/>
	<path fill="#0597D3" d="M233.634,338.021c-46.525-4.174-82.996-43.262-82.996-90.877c0-50.399,40.856-91.252,91.256-91.252
		c1.469,0,2.93,0.037,4.387,0.105c13.932-16.438,31.567-29.639,51.612-38.322c-17.164-7.434-36.102-11.556-55.999-11.556
		c-77.889,0-141.028,63.139-141.028,141.025c0,62.17,40.23,114.946,96.082,133.711C200.797,369.635,210.281,352.936,233.634,338.021
		z"/>
	<g>
		<path fill="#F8C92E" d="M275.342,375.322l3.414-23.832h0.387l9.688,19.557l9.596-19.557h0.379l3.434,23.832h-2.336l-2.355-17.041
			l-8.428,17.041h-0.609l-8.525-17.172l-2.34,17.172H275.342z"/>
		<path fill="#F8C92E" d="M306.998,351.49h2.385v14.389c0,1.705,0.029,2.77,0.098,3.189c0.115,0.939,0.391,1.725,0.822,2.355
			c0.432,0.635,1.1,1.164,1.994,1.592c0.895,0.424,1.799,0.639,2.705,0.639c0.789,0,1.543-0.166,2.268-0.504
			c0.725-0.334,1.33-0.799,1.814-1.393c0.488-0.594,0.842-1.314,1.07-2.152c0.162-0.605,0.244-1.848,0.244-3.727V351.49h2.381
			v14.389c0,2.127-0.209,3.844-0.623,5.158c-0.42,1.311-1.25,2.455-2.494,3.428c-1.25,0.971-2.76,1.455-4.533,1.455
			c-1.92,0-3.564-0.455-4.939-1.375c-1.371-0.92-2.287-2.131-2.756-3.645c-0.289-0.928-0.436-2.605-0.436-5.021V351.49z"/>
		<path fill="#F8C92E" d="M326.18,370.883l2.027-1.217c1.424,2.629,3.072,3.939,4.939,3.939c0.797,0,1.551-0.188,2.25-0.557
			c0.703-0.375,1.236-0.875,1.607-1.502c0.365-0.623,0.549-1.291,0.549-1.99c0-0.801-0.268-1.582-0.809-2.352
			c-0.746-1.059-2.109-2.332-4.086-3.82c-1.986-1.502-3.223-2.588-3.707-3.256c-0.842-1.127-1.266-2.34-1.266-3.65
			c0-1.033,0.248-1.977,0.744-2.832c0.496-0.854,1.201-1.525,2.1-2.018c0.904-0.492,1.885-0.736,2.943-0.736
			c1.123,0,2.172,0.275,3.148,0.834c0.977,0.557,2.01,1.578,3.105,3.072l-1.945,1.473c-0.9-1.188-1.66-1.969-2.291-2.348
			c-0.635-0.379-1.322-0.57-2.066-0.57c-0.961,0-1.746,0.293-2.361,0.875c-0.605,0.586-0.916,1.303-0.916,2.156
			c0,0.518,0.111,1.021,0.326,1.506c0.217,0.488,0.611,1.018,1.184,1.588c0.314,0.305,1.34,1.098,3.076,2.379
			c2.064,1.527,3.48,2.881,4.244,4.07c0.77,1.188,1.152,2.379,1.152,3.58c0,1.725-0.654,3.23-1.969,4.5
			c-1.311,1.277-2.91,1.912-4.785,1.912c-1.449,0-2.764-0.387-3.939-1.154C328.26,373.992,327.174,372.697,326.18,370.883z"/>
		<path fill="#F8C92E" d="M342.803,353.826v-2.336h13.057v2.336h-5.314v21.496h-2.428v-21.496H342.803z"/>
		<path fill="#F8C92E" d="M368.607,351.49h4.748c2.646,0,4.439,0.109,5.381,0.326c1.412,0.324,2.563,1.021,3.449,2.082
			c0.883,1.066,1.328,2.377,1.328,3.936c0,1.299-0.307,2.438-0.916,3.422c-0.611,0.984-1.482,1.729-2.617,2.23
			c-1.131,0.504-2.697,0.76-4.695,0.773l8.57,11.063h-2.951l-8.568-11.063h-1.348v11.063h-2.381V351.49z M370.988,353.826v8.098
			l4.105,0.031c1.592,0,2.768-0.15,3.531-0.451c0.762-0.301,1.355-0.785,1.787-1.453c0.428-0.662,0.639-1.402,0.639-2.225
			c0-0.799-0.215-1.527-0.646-2.178c-0.436-0.654-1.006-1.123-1.705-1.404c-0.703-0.279-1.871-0.418-3.508-0.418H370.988z"/>
		<path fill="#F8C92E" d="M388.631,351.49h13.656v2.336h-11.275v7.467h11.178v2.332h-11.178v9.365h11.178v2.332h-13.559V351.49z"/>
		<path fill="#F8C92E" d="M416.143,351.49l11.111,23.832h-2.57l-3.748-7.84H410.67l-3.715,7.84h-2.658l11.264-23.832H416.143z
			 M415.842,356.557l-4.086,8.625h8.15L415.842,356.557z"/>
		<path fill="#F8C92E" d="M430.949,375.322V351.49h4.939c3.564,0,6.148,0.289,7.76,0.859c2.313,0.809,4.119,2.217,5.42,4.215
			c1.303,1.998,1.949,4.379,1.949,7.141c0,2.389-0.512,4.488-1.547,6.303c-1.029,1.814-2.367,3.154-4.016,4.018
			c-1.648,0.865-3.955,1.297-6.926,1.297H430.949z M433.232,373.072h2.754c3.293,0,5.58-0.207,6.854-0.619
			c1.789-0.582,3.201-1.631,4.227-3.145c1.025-1.518,1.539-3.369,1.539-5.563c0-2.299-0.559-4.26-1.668-5.893
			c-1.111-1.627-2.662-2.742-4.652-3.348c-1.488-0.457-3.947-0.68-7.369-0.68h-1.684V373.072z"/>
	</g>
	<g>
		<g>
			<path fill="#F8C92E" d="M415.873,209.22v-7.748l-1.115-0.439c-0.391-0.15-9.496-3.682-21.639-3.682
				c-13.008,0-24.207,3.963-33.328,11.779c-9.115-7.816-20.326-11.779-33.334-11.779c-12.146,0-21.248,3.531-21.631,3.682
				l-1.123,0.439v7.178c-3.674,0.688-5.965,1.917-5.965,3.928c0,10.461,0,73.946,0,73.946h54.467
				c1.885,1.689,4.639,2.752,7.723,2.752c3.082,0,5.836-1.063,7.715-2.752h53.094c0,0,0-70.276,0-73.946
				C420.736,210.945,418.881,209.879,415.873,209.22z M359.201,280.693c-4.521-1.871-20.094-7.779-35.689-7.779
				c-6.166,0-11.627,0.939-16.273,2.807v-71.802c2.715-0.907,10.107-3.044,19.219-3.044c11.975,0,22.266,3.621,30.668,10.686v42.86
				l2.076-2.283V280.693z M412.334,275.746c-4.988-2.012-10.727-3.023-17.078-3.023c-15.588,0-30.42,5.977-34.893,7.938v-28.527
				l2.084,2.287v-42.86c8.402-7.068,18.697-10.686,30.668-10.686c9.078,0,16.504,2.141,19.219,3.044V275.746z"/>
			<path fill="#F8C92E" d="M314.221,213.363l0.732,2.763c18.393-4.875,34.938,4.15,35.104,4.243l1.393-2.498
				C350.74,217.476,333.748,208.187,314.221,213.363z"/>
			<path fill="#F8C92E" d="M314.221,221.452l0.732,2.767c18.393-4.879,34.938,4.146,35.104,4.236l1.393-2.494
				C350.74,225.562,333.748,216.276,314.221,221.452z"/>
			<path fill="#F8C92E" d="M314.221,229.056l0.732,2.764c18.393-4.875,34.938,4.154,35.104,4.244l1.393-2.498
				C350.74,233.175,333.748,223.889,314.221,229.056z"/>
			<path fill="#F8C92E" d="M314.221,237.39l0.732,2.763c18.393-4.874,34.938,4.15,35.104,4.244l1.393-2.495
				C350.74,241.503,333.748,232.21,314.221,237.39z"/>
			<path fill="#F8C92E" d="M314.221,245.113l0.732,2.768c18.393-4.879,34.938,4.143,35.104,4.245l1.393-2.507
				C350.74,249.227,333.748,239.941,314.221,245.113z"/>
			<path fill="#F8C92E" d="M314.221,253.049l0.732,2.762c18.393-4.879,34.938,4.143,35.104,4.236l1.393-2.502
				C350.74,257.154,333.748,247.873,314.221,253.049z"/>
			<path fill="#F8C92E" d="M314.221,260.994l0.732,2.764c18.393-4.879,34.938,4.154,35.104,4.24l1.393-2.49
				C350.74,265.109,333.748,255.818,314.221,260.994z"/>
			<path fill="#F8C92E" d="M370.361,220.582c0.168-0.09,16.707-9.119,35.1-4.244l0.736-2.764
				c-19.527-5.172-36.52,4.114-37.223,4.513L370.361,220.582z"/>
			<path fill="#F8C92E" d="M368.975,226.179l1.387,2.49c0.168-0.089,16.707-9.118,35.1-4.239l0.736-2.763
				C386.67,216.492,369.678,225.773,368.975,226.179z"/>
			<path fill="#F8C92E" d="M368.975,233.777l1.387,2.494c0.168-0.09,16.707-9.115,35.1-4.244l0.736-2.763
				C386.67,224.097,369.678,233.378,368.975,233.777z"/>
			<path fill="#F8C92E" d="M368.975,242.115l1.387,2.494c0.168-0.09,16.707-9.115,35.1-4.236l0.736-2.763
				C386.67,232.425,369.678,241.711,368.975,242.115z"/>
			<path fill="#F8C92E" d="M368.975,249.833l1.387,2.502c0.168-0.094,16.707-9.12,35.1-4.245l0.736-2.763
				C386.67,240.153,369.678,249.435,368.975,249.833z"/>
			<path fill="#F8C92E" d="M368.975,257.764l1.387,2.498c0.168-0.092,16.707-9.113,35.1-4.238l0.736-2.764
				C386.67,248.083,369.678,257.365,368.975,257.764z"/>
			<path fill="#F8C92E" d="M368.975,265.711l1.387,2.498c0.168-0.086,16.707-9.123,35.1-4.236l0.736-2.766
				C386.67,256.031,369.678,265.324,368.975,265.711z"/>
		</g>
	</g>
</g>
</svg>
